# xmcd
#
# Track frame offsets:
#	150
#	14857
#	31224
#	43606
#	56203
#	70780
#	82428
#	98792
#	111991
#	126328
#	138552
#	153748
#
# Disc length: 2172 seconds
# Revision: 0
# Processed by: cddbd v1.5.2PL0 Copyright (c) Steve Scherf et al.
# Submitted via: dBpowerAMP V12.0
#
DISCID=b7087a0c
DTITLE=The Anderson Family Bluegrass Band - Anderson Family Bluegrass
DYEAR=2008
DGENRE=Bluegrass
TTITLE0=Wild Bill Jones
TTITLE1=Green Pastures
TTITLE2=Rockwood Deer Chase
TTITLE3=Fox on the Run
TTITLE4=Sounds of Loneliness
TTITLE5=Don't Make Me Go to Bed and I'll Be Good
TTITLE6=Get Down On Your Knees And Pray
TTITLE7=Bald Knob Arkansas
TTITLE8=Little Maggie
TTITLE9=Rock of Ages
TTITLE10=Matterhorn
TTITLE11=I Hear a Choo Choo Coming
EXTD=
EXTT0=
EXTT1=
EXTT2=
EXTT3=
EXTT4=
EXTT5=
EXTT6=
EXTT7=
EXTT8=
EXTT9=
EXTT10=
EXTT11=
PLAYORDER=
